<?xml version="1.0" encoding="utf-8"?>
<!-- Generator: Adobe Illustrator 25.4.1, SVG Export Plug-In . SVG Version: 6.00 Build 0)  -->
<svg version="1.1"
	 id="svg2" xmlns:cc="http://creativecommons.org/ns#" xmlns:dc="http://purl.org/dc/elements/1.1/" xmlns:rdf="http://www.w3.org/1999/02/22-rdf-syntax-ns#" xmlns:svg="http://www.w3.org/2000/svg"
	 xmlns="http://www.w3.org/2000/svg" xmlns:xlink="http://www.w3.org/1999/xlink" x="0px" y="0px" viewBox="0 0 793.7 285"
	 style="enable-background:new 0 0 793.7 285;" xml:space="preserve">
<style type="text/css">
	.st0{clip-path:url(#SVGID_00000130628683921683895690000014431510914671926411_);}
	.st1{fill:#005386;}
</style>
<g id="g10" transform="matrix(1.3333333,0,0,-1.3333333,0,1122.52)">
	<g id="g12">
		<g>
			<defs>
				<rect id="SVGID_1_" x="-99.2" y="359.9" width="793.7" height="1122.5"/>
			</defs>
			<clipPath id="SVGID_00000130639965749357077510000006389167778086461341_">
				<use xlink:href="#SVGID_1_"  style="overflow:visible;"/>
			</clipPath>
			<g id="g14" style="clip-path:url(#SVGID_00000130639965749357077510000006389167778086461341_);">
				<g id="g20" transform="translate(400.7295,231.207)">
					<path id="path22" class="st1" d="M0,500.3c-4.9-13.7-16.5-22.2-31.4-22.2c-18.5,0-33,14.1-33,33c0,19,14.5,33,33,33
						c15.3,0,28.1-9.6,32.2-23.2c0.8-3.7-0.4-4.1-2.4-4.5c-2.1-0.4-5.3,0-7.3,1.2c-2.1,1.2-5.3,5.7-5.3,5.7
						c-3.6,6.1-10,9.6-17.3,9.6c-11.6,0-21.4-10-21.4-21.8c0-11.6,9.8-21.6,21.4-21.6c8,0,14.5,4.4,18.5,10.8c0,0,2,3.6,6.9,4.9
						c5.3,1.2,6.5-0.4,6.5-0.4S1.6,504.3,0,500.3"/>
				</g>
				<g id="g24" transform="translate(229.8135,263.7813)">
					<path id="path26" class="st1" d="M0,456.9c-11.6,0-21.2,10-21.2,21.6c0,11.7,9.6,21.8,21.2,21.8v11.2c-18.5,0-33-14-33-33
						c0-18.9,14.5-33,33-33V456.9z M0,500.3c11.7,0,21.4-10,21.4-21.8c0-11.6-9.6-21.6-21.4-21.6v-11.3c18.6,0,33,14.1,33,33
						c0,19-14.4,33-33,33V500.3z"/>
				</g>
				<g id="g28" transform="translate(441.3486,263.7813)">
					<path id="path30" class="st1" d="M0,500.3L0,500.3v11.2c-18.6,0-33-14-33-33c0-18.9,14.4-33,33-33v11.3
						c-11.7,0-21.4,10-21.4,21.6C-21.4,490.2-11.7,500.3,0,500.3 M0,500.3c11.6,0,21.2-10,21.2-21.8c0-11.6-9.6-21.6-21.2-21.6
						v-11.3c18.5,0,33,14.1,33,33c0,19-14.5,33-33,33V500.3z"/>
				</g>
				<g id="g32" transform="translate(314.2158,236.0869)">
					<path id="path34" class="st1" d="M0,500.3c4.1-0.4,4.9-2.1,3.7-5.3c-2.4-6.1-10.8-10.8-18.5-10.8c-8.8,0-13.3,4.4-16.9,8
						c-3.3,3.6-9.8,4-11.7,3.2c-2-0.8-1.2-4-0.4-5.7c5.7-10.4,17.3-16.5,28.6-16.5c12-0.4,22.4,5.7,28.9,15.7
						c6.1,10,3.6,22.6-10.8,22.6l-32.2,0.4c-4.9,0-5.3,2.8-4.1,6.1c3.3,5.9,10.6,10.4,19.4,10.4c8.4,0,12.8-5.3,15.7-8
						c3.2-2.8,9.2-3.6,12-2.4c1.6,0.8,1.2,2.8,0,5.1c-5.3,10.2-16.9,16.1-28.5,16.1c-10.2,0-21.4-4.3-28.2-14.8
						c-5.5-9-5.1-23.7,14.9-23.7L0,500.3z"/>
				</g>
				<g id="g36" transform="translate(157.147,274.9893)">
					<path id="path38" class="st1" d="M0,500.3c-18.6,0-33-14-33-33v-43.7c0,0-0.4-5.7,2-9.6c2-2.8,4.9-4.9,7.6-5.3
						c2,0.4,2.4,2.9,2.4,2.9v29.9c5.7-4.4,12.9-7.3,21-7.3v11.3c-11.7,0-21.4,10-21.4,21.6c0,12.1,9.6,21.8,21.4,21.8V500.3z
						 M0,434.3c18.5,0,33,14.1,33,33c0,19-14.5,33-33,33V489c11.6,0,21.2-9.6,21.2-21.8c0-11.6-9.6-21.6-21.2-21.6V434.3z"/>
				</g>
			</g>
		</g>
	</g>
</g>
</svg>
