<?xml version="1.0" standalone="no"?>
<!DOCTYPE svg PUBLIC "-//W3C//DTD SVG 20010904//EN"
 "http://www.w3.org/TR/2001/REC-SVG-20010904/DTD/svg10.dtd">
<svg version="1.0" xmlns="http://www.w3.org/2000/svg"
 width="98.000000pt" height="80.000000pt" viewBox="0 0 98.000000 80.000000"
 preserveAspectRatio="xMidYMid meet">

<g transform="translate(0.000000,80.000000) scale(0.100000,-0.100000)"
fill="#000000" stroke="none">
<path d="M50 487 c-37 -19 -50 -54 -50 -143 0 -60 4 -85 15 -94 13 -11 15 -6
15 32 l0 45 49 -5 c43 -4 53 -1 75 21 39 39 36 97 -5 131 -34 29 -61 32 -99
13z m82 -34 c35 -31 18 -94 -29 -108 -17 -4 -29 1 -48 19 -30 30 -32 59 -5 86
24 24 57 26 82 3z"/>
<path d="M248 485 c-46 -25 -55 -101 -17 -141 45 -48 129 -26 153 40 11 31
-13 85 -44 101 -36 19 -57 18 -92 0z m91 -41 c27 -35 26 -49 -4 -80 -54 -54
-132 19 -84 79 26 35 61 35 88 1z"/>
<path d="M430 472 c-34 -35 -36 -44 -14 -66 10 -11 34 -16 70 -16 42 0 54 -3
54 -15 0 -9 -12 -20 -27 -26 -23 -9 -35 -7 -65 10 -31 17 -38 19 -38 7 0 -47
105 -62 145 -21 47 46 26 75 -55 75 -66 0 -76 6 -53 32 20 22 66 24 83 3 13
-16 40 -20 40 -7 0 18 -39 43 -73 49 -31 5 -40 1 -67 -25z"/>
<path d="M639 485 c-50 -27 -57 -97 -16 -142 29 -32 95 -32 125 0 21 22 29 47
16 47 -3 0 -19 -11 -36 -25 -37 -31 -53 -31 -83 0 -30 29 -31 45 -4 79 26 33
56 33 91 -1 30 -29 44 -26 33 6 -7 23 -53 51 -82 51 -10 -1 -30 -7 -44 -15z"/>
<path d="M845 488 c-33 -18 -45 -40 -45 -83 0 -106 144 -119 175 -17 20 68
-67 135 -130 100z m84 -44 c27 -35 26 -49 -4 -80 -57 -57 -134 27 -80 86 25
28 60 25 84 -6z"/>
</g>
</svg>
