<?xml version="1.0" standalone="no"?>
<!DOCTYPE svg PUBLIC "-//W3C//DTD SVG 20010904//EN"
 "http://www.w3.org/TR/2001/REC-SVG-20010904/DTD/svg10.dtd">
<svg version="1.0" xmlns="http://www.w3.org/2000/svg"
 width="1459.000000pt" height="381.000000pt" viewBox="0 0 1459.000000 381.000000"
 preserveAspectRatio="xMidYMid meet">

<g transform="translate(0.000000,381.000000) scale(0.100000,-0.100000)"
fill="#000000" stroke="none">
<path d="M1220 3800 c-594 -73 -1039 -474 -1172 -1058 -22 -97 -22 -102 -25
-1176 -4 -1186 -5 -1173 56 -1301 51 -109 187 -225 299 -255 36 -9 47 -8 72 7
61 36 60 19 60 713 0 517 2 631 13 627 7 -3 49 -28 93 -57 228 -149 452 -219
729 -227 314 -10 578 64 829 231 466 312 684 913 540 1491 -110 441 -437 796
-864 939 -182 60 -447 88 -630 66z m370 -480 c338 -81 607 -372 669 -724 15
-84 14 -241 -3 -328 -62 -323 -310 -597 -631 -698 -107 -34 -310 -39 -428 -11
-475 113 -777 588 -678 1066 71 347 345 626 686 700 96 21 285 18 385 -5z"/>
<path d="M4280 3804 c-227 -22 -466 -107 -657 -235 -172 -115 -356 -330 -446
-521 -207 -437 -170 -982 93 -1381 191 -289 497 -495 850 -572 43 -9 147 -19
245 -22 191 -6 339 13 490 62 390 128 697 421 842 805 52 136 74 263 80 450 6
197 -13 345 -63 495 -157 473 -551 814 -1041 900 -89 16 -311 26 -393 19z
m285 -475 c349 -59 646 -353 719 -711 20 -96 21 -252 2 -350 -42 -221 -192
-448 -381 -578 -74 -51 -205 -108 -301 -131 -75 -18 -110 -20 -219 -16 -148 5
-210 20 -333 77 -200 94 -344 242 -442 454 -62 132 -75 199 -74 371 0 133 3
160 27 238 139 454 554 722 1002 646z"/>
<path d="M7180 3804 c-342 -41 -620 -164 -842 -373 -293 -276 -400 -629 -273
-899 81 -171 260 -280 510 -311 50 -6 380 -15 735 -21 702 -11 727 -13 769
-67 55 -69 -7 -235 -132 -355 -289 -279 -759 -338 -1084 -138 -48 29 -131 97
-199 162 -85 80 -134 118 -179 139 -112 53 -274 74 -355 46 -130 -45 -42 -285
190 -517 186 -187 427 -316 702 -377 66 -14 127 -18 303 -18 198 0 229 3 315
24 264 66 488 196 674 391 209 221 306 426 306 650 -1 112 -11 163 -50 245
-56 117 -195 220 -345 255 -33 8 -297 15 -795 21 -413 6 -768 15 -797 20 -66
13 -100 40 -113 90 -24 89 29 206 146 323 183 181 449 278 718 263 218 -13
343 -75 558 -275 140 -130 242 -172 421 -172 169 0 209 47 153 182 -39 96
-114 205 -206 302 -245 256 -584 401 -960 411 -74 2 -151 1 -170 -1z"/>
<path d="M10051 3800 c-682 -86 -1166 -609 -1198 -1295 -19 -400 120 -768 392
-1040 192 -193 416 -312 695 -372 121 -26 449 -26 569 0 435 94 756 342 945
731 97 198 126 315 89 349 -64 56 -261 40 -388 -33 -72 -42 -121 -92 -199
-203 -134 -190 -306 -315 -511 -373 -86 -24 -301 -30 -390 -11 -336 71 -605
329 -697 669 -19 68 -22 107 -22 223 1 123 4 151 28 230 94 309 305 531 599
628 77 25 113 31 219 35 147 5 224 -6 344 -49 163 -59 292 -165 405 -330 35
-51 100 -130 144 -175 70 -71 88 -84 145 -102 126 -41 266 -37 322 8 65 52 -7
288 -157 515 -192 289 -521 504 -884 576 -113 22 -344 32 -450 19z"/>
<path d="M13050 3800 c-327 -40 -615 -181 -830 -407 -178 -186 -288 -399 -347
-674 -26 -120 -25 -448 1 -569 38 -178 113 -356 206 -496 73 -109 254 -288
363 -358 145 -95 305 -162 482 -201 40 -9 143 -18 240 -21 270 -9 448 27 670
135 394 192 644 527 732 976 24 124 23 385 -2 515 -106 558 -509 967 -1066
1080 -115 24 -338 33 -449 20z m432 -500 c168 -56 326 -170 435 -314 56 -74
135 -237 158 -326 26 -101 31 -289 11 -390 -58 -284 -242 -521 -501 -646 -125
-61 -189 -76 -340 -81 -109 -4 -144 -2 -219 16 -343 82 -611 361 -682 711 -20
101 -15 289 11 390 26 102 115 275 182 355 125 148 288 254 466 301 82 21 108
24 237 21 132 -4 154 -7 242 -37z"/>
</g>
</svg>
